<svg fill="none" height="24" viewBox="0 0 24 24" width="24" xmlns="http://www.w3.org/2000/svg">
    <path
        d="m18 15.8369c1.4559.7314 2.7041 1.9051 3.6152 3.3727.1804.2907.2706.436.3018.6372.0634.409-.2162.9117-.5971 1.0736-.1874.0796-.3983.0796-.8199.0796m-4.5-9.4678c1.4817-.7363 2.5-2.26534 2.5-4.0322s-1.0183-3.29589-2.5-4.03224m-2 4.03224c0 2.48528-2.0148 4.5-4.50004 4.5-2.48528 0-4.5-2.01472-4.5-4.5s2.01472-4.5 4.5-4.5c2.48524 0 4.50004 2.01472 4.50004 4.5zm-11.44081 11.4383c1.59431-2.3937 4.11014-3.9383 6.94077-3.9383 2.83064 0 5.34644 1.5446 6.94074 3.9383.3493.5245.5239.7867.5038 1.1216-.0156.2608-.1866.5801-.395.7377-.2676.2024-.6357.2024-1.3719.2024h-11.35528c-.73619 0-1.10428 0-1.37192-.2024-.20839-.1576-.37935-.4769-.39501-.7377-.0201-.3349.15453-.5971.5038-1.1216z"
        stroke="#555" stroke-linecap="round" stroke-linejoin="round" stroke-width="2" />
</svg>